<svg 
  xmlns="http://www.w3.org/2000/svg"
  xmlns:xlink="http://www.w3.org/1999/xlink"
  viewBox="0 0 24 24"
  width="12" height="12">
  <path fill-rule="evenodd"  fill="rgb(255, 255, 255)"
  d="M20.070,20.062 L20.070,24.000 L18.199,24.000 L18.199,20.062 L14.269,20.062 L14.269,18.187 L18.199,18.187 L18.199,14.250 L20.070,14.250 L20.070,18.187 L24.000,18.187 L24.000,20.062 L20.070,20.062 ZM11.976,13.875 C6.404,13.875 1.871,18.417 1.871,24.000 L-0.000,24.000 C-0.000,20.794 1.246,17.781 3.508,15.514 C4.812,14.207 6.365,13.240 8.059,12.654 C6.245,11.402 5.053,9.307 5.053,6.937 C5.053,3.112 8.159,-0.000 11.976,-0.000 C15.794,-0.000 18.901,3.112 18.901,6.937 C18.901,10.762 15.794,13.875 11.976,13.875 ZM11.976,1.875 C9.191,1.875 6.924,4.146 6.924,6.937 C6.924,9.729 9.191,12.000 11.976,12.000 C14.763,12.000 17.029,9.729 17.029,6.937 C17.029,4.146 14.763,1.875 11.976,1.875 Z"/>
</svg>